<svg xmlns="http://www.w3.org/2000/svg" xmlns:xlink="http://www.w3.org/1999/xlink" viewBox="0 0 31.1 31.01"><defs><style>.cls-1{fill:url(#linear-gradient);}.cls-2{fill:#09804c;}.cls-3{fill:url(#linear-gradient-2);}.cls-4{fill:url(#linear-gradient-3);}.cls-5{fill:url(#linear-gradient-4);}</style><linearGradient id="linear-gradient" x1="20.19" y1="23.94" x2="28.87" y2="5.82" gradientUnits="userSpaceOnUse"><stop offset="0" stop-color="#116149"/><stop offset="0.37" stop-color="#13aa52"/><stop offset="0.65" stop-color="#0ad05b"/><stop offset="0.93" stop-color="#69d997"/><stop offset="1" stop-color="#83dba7"/></linearGradient><linearGradient id="linear-gradient-2" x1="12.72" y1="24.58" x2="-0.04" y2="4.8" xlink:href="#linear-gradient"/><linearGradient id="linear-gradient-3" x1="16.95" y1="29.88" x2="32.87" y2="16.29" xlink:href="#linear-gradient"/><linearGradient id="linear-gradient-4" x1="15.18" y1="30.39" x2="-2.07" y2="16.54" xlink:href="#linear-gradient"/></defs><g id="Layer_1" data-name="Layer 1"><path class="cls-1" d="M20.73,19.05a17,17,0,0,1,10.35-2.87c0-.22,0-.45,0-.67A15.54,15.54,0,0,0,28.82,7.4,14.32,14.32,0,0,0,22,9.81a15,15,0,0,0-5.33,6.63v6.62A16.51,16.51,0,0,1,20.73,19.05Z"/><path class="cls-2" d="M16.63,12A16.4,16.4,0,0,1,27.35,5.38,15.57,15.57,0,0,0,16.63,0Z"/><path class="cls-3" d="M10.37,19.05a16.46,16.46,0,0,1,4.09,4V16.44A14.93,14.93,0,0,0,9.14,9.81,14.36,14.36,0,0,0,2.28,7.4,15.44,15.44,0,0,0,0,15.51c0,.22,0,.45,0,.67A17,17,0,0,1,10.37,19.05Z"/><path class="cls-4" d="M22,20.84a15,15,0,0,0-5.33,6.63V31a15.54,15.54,0,0,0,14.2-12.65A14.91,14.91,0,0,0,22,20.84Z"/><path class="cls-5" d="M14.46,27.47a14.93,14.93,0,0,0-5.32-6.63A14.91,14.91,0,0,0,.27,18.36,15.53,15.53,0,0,0,14.46,31Z"/><path class="cls-2" d="M10.37,8a16.46,16.46,0,0,1,4.09,4V0A15.55,15.55,0,0,0,3.75,5.38,16.38,16.38,0,0,1,10.37,8Z"/></g></svg>